<svg id="Layer_1" data-name="Layer 1" xmlns="http://www.w3.org/2000/svg" viewBox="0 0 24.35 28.92"><defs><style>.cls-1{fill:#09286e;}.cls-2{fill:#0091c4;}</style></defs><path class="cls-1" d="M18.17,27.23a13.35,13.35,0,0,1,0-26.7h.18A14.65,14.65,0,0,0,14.46,0a14.46,14.46,0,1,0,7.9,26.56A13.26,13.26,0,0,1,18.17,27.23Z" transform="translate(0.02 0)"/><path class="cls-2" d="M6.63,17.67A16.41,16.41,0,0,1,24.33,2.89a13.79,13.79,0,0,0-3.47-.75A13.36,13.36,0,0,0,6.59,18.34C6.6,18.08,6.61,17.88,6.63,17.67Z" transform="translate(0.02 0)"/></svg>