<svg id="Layer_1" data-name="Layer 1" xmlns="http://www.w3.org/2000/svg" viewBox="0 0 144.58 64.41"><defs><style>.cls-1,.cls-3{fill:#09286e;}.cls-2{fill:#0091c4;}.cls-3{font-size:28.06px;font-family:MyriadPro-Regular, Myriad Pro;}.cls-4{letter-spacing:0em;}.cls-5{letter-spacing:-0.01em;}.cls-6{letter-spacing:-0.01em;}</style></defs><path class="cls-1" d="M469.56,328.46a29.75,29.75,0,0,1,0-59.49h.4a32.2,32.2,0,1,0,9,58A29.78,29.78,0,0,1,469.56,328.46Z" transform="translate(-429.09 -267.8)"/><text x="-429.09" y="-267.8"/><path class="cls-2" d="M442.86,306.41a36.5,36.5,0,0,1,38.47-34,29.73,29.73,0,0,0-38.54,35.39C442.81,307.33,442.83,306.87,442.86,306.41Z" transform="translate(-429.09 -267.8)"/><text class="cls-3" transform="translate(26.4 48.65)"><tspan class="cls-4">C</tspan><tspan x="16.19" y="0">rusou</tspan><tspan class="cls-5" x="82.82" y="0">r</tspan><tspan class="cls-6" x="91.71" y="0">c</tspan><tspan x="104.12" y="0">e</tspan></text></svg>