<svg id="Layer_1" data-name="Layer 1" xmlns="http://www.w3.org/2000/svg" viewBox="0 0 24.33 28.91"><defs><style>.cls-1{fill:#fff;}.cls-2{fill:#0091c4;}</style></defs><path class="cls-1" d="M22.1,29.09a13.35,13.35,0,0,1,0-26.7h.18a14.73,14.73,0,0,0-3.89-.53,14.46,14.46,0,1,0,7.9,26.56A13.23,13.23,0,0,1,22.1,29.09Z" transform="translate(-3.93 -1.86)"/><path class="cls-2" d="M10.56,19.53A16.4,16.4,0,0,1,28.26,4.75,13.61,13.61,0,0,0,24.79,4a13.35,13.35,0,0,0-14.27,16.2C10.53,19.94,10.54,19.74,10.56,19.53Z" transform="translate(-3.93 -1.86)"/></svg>