<svg id="Layer_1" data-name="Layer 1" xmlns="http://www.w3.org/2000/svg" viewBox="0 0 111.67 44.73"><defs><style>.cls-1{fill:#09286e;}.cls-2{fill:#0091c4;}</style></defs><path class="cls-1" d="M29.68,49.74a20.66,20.66,0,0,1,0-41.31H30a22.37,22.37,0,1,0-6,43.91A22.23,22.23,0,0,0,36.17,48.7,20.76,20.76,0,0,1,29.68,49.74Z" transform="translate(-1.58 -7.61)"/><text x="-1.58" y="-7.61"/><path class="cls-2" d="M11.14,34.43A25.36,25.36,0,0,1,37.86,10.8,20.65,20.65,0,0,0,10.51,28.92a20.32,20.32,0,0,0,.59,6.46C11.1,35.07,11.12,34.75,11.14,34.43Z" transform="translate(-1.58 -7.61)"/><path class="cls-1" d="M31.25,41.74a10.08,10.08,0,0,1-4,.7c-4.67,0-7.56-2.74-7.56-6.83s3.21-7.13,7.91-7.13a8.91,8.91,0,0,1,3.77.68l-.59,2a7.64,7.64,0,0,0-3.07-.61c-3.18,0-5.32,1.84-5.32,4.94,0,2.75,1.86,4.82,5.27,4.82a8.19,8.19,0,0,0,3.14-.57Z" transform="translate(-1.58 -7.61)"/><path class="cls-1" d="M33.38,35.72c0-1.44,0-2.38-.08-3.26h2.22l.09,2h.07a3.1,3.1,0,0,1,2.89-2.22,2.46,2.46,0,0,1,.62.06v2.38a3.76,3.76,0,0,0-.81-.08A2.27,2.27,0,0,0,36,36.5a3.74,3.74,0,0,0-.06.68v5H33.38Z" transform="translate(-1.58 -7.61)"/><path class="cls-1" d="M50.45,39.25c0,1.19,0,2.17.08,3H48.28l-.12-1.62H48.1a3.83,3.83,0,0,1-3.44,1.86c-1.77,0-3.68-1-3.68-4.37V32.46h2.57v5.15c0,1.69.6,2.75,2.05,2.75a2.35,2.35,0,0,0,2.14-1.44,2.06,2.06,0,0,0,.14-.73V32.46h2.57Z" transform="translate(-1.58 -7.61)"/><path class="cls-1" d="M53.23,39.85a6.14,6.14,0,0,0,2.76.78c1.19,0,1.68-.47,1.68-1.09s-.44-1-1.74-1.36C53.87,37.59,53,36.52,53,35.31c0-1.72,1.49-3.09,3.94-3.09a6.17,6.17,0,0,1,2.82.62l-.51,1.78A5.15,5.15,0,0,0,57,34c-.92,0-1.45.41-1.45,1s.55.94,1.88,1.34c1.93.58,2.79,1.46,2.8,3,0,1.71-1.39,3.08-4.2,3.08a7.18,7.18,0,0,1-3.26-.72Z" transform="translate(-1.58 -7.61)"/><path class="cls-1" d="M72.55,37.21c0,3.46-2.67,5.23-5.5,5.23s-5.34-1.95-5.34-5,2.23-5.2,5.54-5.2S72.55,34.34,72.55,37.21Zm-8.17.14c0,1.95,1.15,3.25,2.75,3.25s2.76-1.17,2.76-3.3c0-1.57-.82-3.24-2.72-3.24S64.38,35.65,64.38,37.35Z" transform="translate(-1.58 -7.61)"/><path class="cls-1" d="M84.15,39.25c0,1.19,0,2.17.08,3H82l-.12-1.62H81.8a3.82,3.82,0,0,1-3.43,1.86c-1.78,0-3.69-1-3.69-4.37V32.46h2.57v5.15c0,1.69.6,2.75,2,2.75a2.35,2.35,0,0,0,2.14-1.44,2.06,2.06,0,0,0,.14-.73V32.46h2.57Z" transform="translate(-1.58 -7.61)"/><path class="cls-1" d="M87,35.72c0-1.44,0-2.38-.08-3.26h2.22l.08,2h.08a3.1,3.1,0,0,1,2.89-2.22,2.46,2.46,0,0,1,.62.06v2.38a3.76,3.76,0,0,0-.81-.08,2.26,2.26,0,0,0-2.37,1.92,3.74,3.74,0,0,0-.06.68v5H87Z" transform="translate(-1.58 -7.61)"/><path class="cls-1" d="M102.36,41.88a8.21,8.21,0,0,1-3.12.56c-3.3,0-5.41-2-5.41-5s2.12-5.22,5.83-5.22a7.39,7.39,0,0,1,2.7.5l-.47,1.9a4.69,4.69,0,0,0-2.14-.43,3,3,0,0,0-3.28,3.11,3.06,3.06,0,0,0,3.29,3.13A5.64,5.64,0,0,0,102,40Z" transform="translate(-1.58 -7.61)"/><path class="cls-1" d="M106,38.05c.08,1.62,1.57,2.46,3.29,2.46a8.47,8.47,0,0,0,3-.49l.39,1.75a9.84,9.84,0,0,1-3.73.67c-3.38,0-5.4-2-5.4-5a5,5,0,0,1,5.14-5.25c3.54,0,4.57,2.85,4.57,4.83a4.72,4.72,0,0,1-.09,1Zm4.83-1.79a2.2,2.2,0,0,0-2.29-2.33A2.58,2.58,0,0,0,106,36.26Z" transform="translate(-1.58 -7.61)"/></svg>